<svg width="280" height="280" fill="none" xmlns="http://www.w3.org/2000/svg"><path fill-rule="evenodd" clip-rule="evenodd" d="M43.75 2.917h-5.833V8.75h5.833V2.917zm0 11.666h-5.833v5.834h5.833v-5.834zm0 11.667h-5.833v5.833h5.833V26.25zm0 11.667h-5.833v5.833h5.833v-5.833zm0 11.666h-5.833v5.834h5.833v-5.834zm0 11.667h-5.833v5.833h5.833V61.25zm0 11.667h-5.833v5.833h5.833v-5.833zm0 11.666h-5.833v3.56h-5.834v-3.56H26.25v3.56h-5.833v-3.56h-5.834v3.56H8.75v-3.56H2.917v3.56H0V0h88.142v2.917h-3.559V8.75h3.56v5.833h-3.56v5.834h3.56v5.833h-3.56v5.833h3.56v5.834h-3.56v5.833h3.56v5.833h-3.56v5.834h3.56v5.833h-3.56v5.833h3.56v5.834h-3.56v5.833h3.56v5.833h-3.56v3.56H78.75v-3.56h-5.833v3.56h-5.834v-3.56H61.25v3.56h-5.833v-3.56h-5.834v3.56H43.75v-3.56zm5.833-5.833h5.834v-5.833h-5.834v5.833zm0-11.667h5.834V61.25h-5.834v5.833zm0-11.666h5.834v-5.834h-5.834v5.834zm0-11.667h5.834v-5.833h-5.834v5.833zm0-11.667h5.834V26.25h-5.834v5.833zm0-11.666h5.834v-5.834h-5.834v5.834zm0-11.667h5.834V2.917h-5.834V8.75zM61.25 2.917V8.75h5.833V2.917H61.25zm11.667 0V8.75h5.833V2.917h-5.833zm5.833 11.666h-5.833v5.834h5.833v-5.834zm0 11.667h-5.833v5.833h5.833V26.25zm0 11.667h-5.833v5.833h5.833v-5.833zm0 11.666h-5.833v5.834h5.833v-5.834zm0 11.667h-5.833v5.833h5.833V61.25zm0 11.667h-5.833v5.833h5.833v-5.833zM67.083 78.75v-5.833H61.25v5.833h5.833zM61.25 67.083h5.833V61.25H61.25v5.833zm0-11.666h5.833v-5.834H61.25v5.834zm0-11.667h5.833v-5.833H61.25v5.833zm0-11.667h5.833V26.25H61.25v5.833zm0-11.666h5.833v-5.834H61.25v5.834zM96.25 0h-5.833v88.142h5.833V0zM2.917 2.917V8.75H8.75V2.917H2.917zm11.666 0V8.75h5.834V2.917h-5.834zm11.667 0V8.75h5.833V2.917H26.25zm5.833 11.666H26.25v5.834h5.833v-5.834zm0 11.667H26.25v5.833h5.833V26.25zm0 11.667H26.25v5.833h5.833v-5.833zm0 11.666H26.25v5.834h5.833v-5.834zm0 11.667H26.25v5.833h5.833V61.25zm0 11.667H26.25v5.833h5.833v-5.833zM20.417 78.75v-5.833h-5.834v5.833h5.834zm-11.667 0v-5.833H2.917v5.833H8.75zM2.917 67.083H8.75V61.25H2.917v5.833zm0-11.666H8.75v-5.834H2.917v5.834zm0-11.667H8.75v-5.833H2.917v5.833zm0-11.667H8.75V26.25H2.917v5.833zm0-11.666H8.75v-5.834H2.917v5.834zm11.666-5.834v5.834h5.834v-5.834h-5.834zm5.834 11.667h-5.834v5.833h5.834V26.25zm0 11.667h-5.834v5.833h5.834v-5.833zm0 11.666h-5.834v5.834h5.834v-5.834zm0 11.667h-5.834v5.833h5.834V61.25zM0 191.858V280h88.142v-2.917h-3.559v-5.833h3.56v-5.833h-3.56v-5.834h3.56v-5.833h-3.56v-5.833h3.56v-5.834h-3.56v-5.833h3.56v-5.833h-3.56v-5.834h3.56v-5.833h-3.56v-5.833h3.56v-5.834h-3.56v-5.833h3.56v-5.833h-3.56v-3.559H78.75v3.559h-5.833v-3.559h-5.834v3.559H61.25v-3.559h-5.833v3.559h-5.834v-3.559H43.75v3.559h-5.833v-3.559h-5.834v3.559H26.25v-3.559h-5.833v3.559h-5.834v-3.559H8.75v3.559H2.917v-3.559H0zm2.917 9.392v5.833H8.75v-5.833H2.917zm11.666 0v5.833h5.834v-5.833h-5.834zm11.667 0v5.833h5.833v-5.833H26.25zm11.667 0v5.833h5.833v-5.833h-5.833zm11.666 0v5.833h5.834v-5.833h-5.834zm11.667 0v5.833h5.833v-5.833H61.25zm11.667 0v5.833h5.833v-5.833h-5.833zm5.833 11.667h-5.833v5.833h5.833v-5.833zm0 11.666h-5.833v5.834h5.833v-5.834zm0 11.667h-5.833v5.833h5.833v-5.833zm0 11.667h-5.833v5.833h5.833v-5.833zm0 11.666h-5.833v5.834h5.833v-5.834zm0 11.667h-5.833v5.833h5.833v-5.833zm-11.667 5.833v-5.833H61.25v5.833h5.833zm-11.666 0v-5.833h-5.834v5.833h5.834zm-11.667 0v-5.833h-5.833v5.833h5.833zm-11.667 0v-5.833H26.25v5.833h5.833zm-11.666 0v-5.833h-5.834v5.833h5.834zm-11.667 0v-5.833H2.917v5.833H8.75zm-5.833-11.666H8.75v-5.834H2.917v5.834zm0-11.667H8.75v-5.833H2.917v5.833zm0-11.667H8.75v-5.833H2.917v5.833zm0-11.666H8.75v-5.834H2.917v5.834zm0-11.667H8.75v-5.833H2.917v5.833zm11.666-5.833v5.833h5.834v-5.833h-5.834zm11.667 0v5.833h5.833v-5.833H26.25zm11.667 0v5.833h5.833v-5.833h-5.833zm11.666 0v5.833h5.834v-5.833h-5.834zm11.667 0v5.833h5.833v-5.833H61.25zm5.833 11.666H61.25v5.834h5.833v-5.834zm0 11.667H61.25v5.833h5.833v-5.833zm0 11.667H61.25v5.833h5.833v-5.833zm0 11.666H61.25v5.834h5.833v-5.834zm-11.666 5.834v-5.834h-5.834v5.834h5.834zm-11.667 0v-5.834h-5.833v5.834h5.833zm-11.667 0v-5.834H26.25v5.834h5.833zm-11.666 0v-5.834h-5.834v5.834h5.834zm-5.834-11.667h5.834v-5.833h-5.834v5.833zm0-11.667h5.834v-5.833h-5.834v5.833zm0-11.666h5.834v-5.834h-5.834v5.834zm11.667-5.834v5.834h5.833v-5.834H26.25zm11.667 0v5.834h5.833v-5.834h-5.833zm11.666 0v5.834h5.834v-5.834h-5.834zm5.834 11.667h-5.834v5.833h5.834v-5.833zm0 11.667h-5.834v5.833h5.834v-5.833zM43.75 253.75v-5.833h-5.833v5.833h5.833zm-11.667 0v-5.833H26.25v5.833h5.833zm-5.833-11.667h5.833v-5.833H26.25v5.833zm11.667-5.833v5.833h5.833v-5.833h-5.833zM191.858 280H280v-88.142h-2.917v3.559h-5.833v-3.559h-5.833v3.559h-5.834v-3.559h-5.833v3.559h-5.833v-3.559h-5.834v3.559h-5.833v-3.559h-5.833v3.559h-5.834v-3.559h-5.833v3.559h-5.833v-3.559h-5.834v3.559h-5.833v-3.559h-5.833v3.559h-3.559v5.833h3.559v5.833h-3.559v5.834h3.559v5.833h-3.559v5.833h3.559v5.834h-3.559v5.833h3.559v5.833h-3.559v5.834h3.559v5.833h-3.559v5.833h3.559v5.834h-3.559v5.833h3.559v5.833h-3.559V280zm9.392-2.917h5.833v-5.833h-5.833v5.833zm0-11.666h5.833v-5.834h-5.833v5.834zm0-11.667h5.833v-5.833h-5.833v5.833zm0-11.667h5.833v-5.833h-5.833v5.833zm0-11.666h5.833v-5.834h-5.833v5.834zm0-11.667h5.833v-5.833h-5.833v5.833zm0-11.667h5.833v-5.833h-5.833v5.833zm11.667-5.833v5.833h5.833v-5.833h-5.833zm11.666 0v5.833h5.834v-5.833h-5.834zm11.667 0v5.833h5.833v-5.833h-5.833zm11.667 0v5.833h5.833v-5.833h-5.833zm11.666 0v5.833h5.834v-5.833h-5.834zm11.667 0v5.833h5.833v-5.833h-5.833zm5.833 11.667h-5.833v5.833h5.833v-5.833zm0 11.666h-5.833v5.834h5.833v-5.834zm0 11.667h-5.833v5.833h5.833v-5.833zm0 11.667h-5.833v5.833h5.833v-5.833zm0 11.666h-5.833v5.834h5.833v-5.834zm0 11.667h-5.833v5.833h5.833v-5.833zm-11.666 5.833v-5.833h-5.834v5.833h5.834zm-11.667 0v-5.833h-5.833v5.833h5.833zm-11.667 0v-5.833h-5.833v5.833h5.833zm-11.666 0v-5.833h-5.834v5.833h5.834zm-11.667 0v-5.833h-5.833v5.833h5.833zm-5.833-11.666h5.833v-5.834h-5.833v5.834zm0-11.667h5.833v-5.833h-5.833v5.833zm0-11.667h5.833v-5.833h-5.833v5.833zm0-11.666h5.833v-5.834h-5.833v5.834zm0-11.667h5.833v-5.833h-5.833v5.833zm11.666-5.833v5.833h5.834v-5.833h-5.834zm11.667 0v5.833h5.833v-5.833h-5.833zm11.667 0v5.833h5.833v-5.833h-5.833zm11.666 0v5.833h5.834v-5.833h-5.834zm5.834 11.666h-5.834v5.834h5.834v-5.834zm0 11.667h-5.834v5.833h5.834v-5.833zm0 11.667h-5.834v5.833h5.834v-5.833zm0 11.666h-5.834v5.834h5.834v-5.834zm-11.667 5.834v-5.834h-5.833v5.834h5.833zm-11.667 0v-5.834h-5.833v5.834h5.833zm-11.666 0v-5.834h-5.834v5.834h5.834zm-5.834-11.667h5.834v-5.833h-5.834v5.833zm0-11.667h5.834v-5.833h-5.834v5.833zm0-11.666h5.834v-5.834h-5.834v5.834zm11.667-5.834v5.834h5.833v-5.834h-5.833zm11.667 0v5.834h5.833v-5.834h-5.833zm5.833 11.667h-5.833v5.833h5.833v-5.833zm0 11.667h-5.833v5.833h5.833v-5.833zm-11.667 5.833v-5.833h-5.833v5.833h5.833zm-5.833-11.667h5.833v-5.833h-5.833v5.833zM280 88.143V0h-88.142v2.917h3.559V8.75h-3.559v5.833h3.559v5.834h-3.559v5.833h3.559v5.833h-3.559v5.834h3.559v5.833h-3.559v5.833h3.559v5.834h-3.559v5.833h3.559v5.833h-3.559v5.834h3.559v5.833h-3.559v5.833h3.559v3.56h5.833v-3.56h5.833v3.56h5.834v-3.56h5.833v3.56h5.833v-3.56h5.834v3.56h5.833v-3.56h5.833v3.56h5.834v-3.56h5.833v3.56h5.833v-3.56h5.834v3.56h5.833v-3.56h5.833v3.56H280zm-2.917-9.393v-5.833h-5.833v5.833h5.833zm-11.666 0v-5.833h-5.834v5.833h5.834zm-11.667 0v-5.833h-5.833v5.833h5.833zm-11.667 0v-5.833h-5.833v5.833h5.833zm-11.666 0v-5.833h-5.834v5.833h5.834zm-11.667 0v-5.833h-5.833v5.833h5.833zm-11.667 0v-5.833h-5.833v5.833h5.833zm-5.833-11.667h5.833V61.25h-5.833v5.833zm0-11.666h5.833v-5.834h-5.833v5.834zm0-11.667h5.833v-5.833h-5.833v5.833zm0-11.667h5.833V26.25h-5.833v5.833zm0-11.666h5.833v-5.834h-5.833v5.834zm0-11.667h5.833V2.917h-5.833V8.75zm11.667-5.833V8.75h5.833V2.917h-5.833zm11.666 0V8.75h5.834V2.917h-5.834zm11.667 0V8.75h5.833V2.917h-5.833zm11.667 0V8.75h5.833V2.917h-5.833zm11.666 0V8.75h5.834V2.917h-5.834zm11.667 0V8.75h5.833V2.917h-5.833zm5.833 11.666h-5.833v5.834h5.833v-5.834zm0 11.667h-5.833v5.833h5.833V26.25zm0 11.667h-5.833v5.833h5.833v-5.833zm0 11.666h-5.833v5.834h5.833v-5.834zm0 11.667h-5.833v5.833h5.833V61.25zm-11.666 5.833V61.25h-5.834v5.833h5.834zm-11.667 0V61.25h-5.833v5.833h5.833zm-11.667 0V61.25h-5.833v5.833h5.833zm-11.666 0V61.25h-5.834v5.833h5.834zm-11.667 0V61.25h-5.833v5.833h5.833zm-5.833-11.666h5.833v-5.834h-5.833v5.834zm0-11.667h5.833v-5.833h-5.833v5.833zm0-11.667h5.833V26.25h-5.833v5.833zm0-11.666h5.833v-5.834h-5.833v5.834zm11.666-5.834v5.834h5.834v-5.834h-5.834zm11.667 0v5.834h5.833v-5.834h-5.833zm11.667 0v5.834h5.833v-5.834h-5.833zm11.666 0v5.834h5.834v-5.834h-5.834zm5.834 11.667h-5.834v5.833h5.834V26.25zm0 11.667h-5.834v5.833h5.834v-5.833zm0 11.666h-5.834v5.834h5.834v-5.834zm-11.667 5.834v-5.834h-5.833v5.834h5.833zm-11.667 0v-5.834h-5.833v5.834h5.833zm-11.666 0v-5.834h-5.834v5.834h5.834zm-5.834-11.667h5.834v-5.833h-5.834v5.833zm0-11.667h5.834V26.25h-5.834v5.833zm11.667-5.833v5.833h5.833V26.25h-5.833zm11.667 0v5.833h5.833V26.25h-5.833zm5.833 11.667h-5.833v5.833h5.833v-5.833zm-11.667 5.833v-5.833h-5.833v5.833h5.833zM102.083 0v88.142h5.834V0h-5.834zm11.667 0v88.142h5.833V0h-5.833zm11.667 0v88.142h5.833V0h-5.833zm11.666 0v88.142h5.834V0h-5.834zm11.667 0v88.142h5.833V0h-5.833zm11.667 0v88.142h5.833V0h-5.833zm11.666 0v88.142h5.834V0h-5.834zm11.667 0v88.142h5.833V0h-5.833zM280 90.417h-88.142v5.833H280v-5.833zm0 11.666h-88.142v5.834H280v-5.834zm0 11.667h-88.142v5.833H280v-5.833zm0 11.667h-88.142v5.833H280v-5.833zm0 11.666h-88.142v5.834H280v-5.834zm0 11.667h-88.142v5.833H280v-5.833zm0 11.667h-88.142v5.833H280v-5.833zm0 11.666h-88.142v5.834H280v-5.834zm0 11.667h-88.142v5.833H280v-5.833zM189.583 280v-88.142h-5.833V280h5.833zm-11.666 0v-88.142h-5.834V280h5.834zm-11.667 0v-88.142h-5.833V280h5.833zm-11.667 0v-88.142h-5.833V280h5.833zm-11.666 0v-88.142h-5.834V280h5.834zm-11.667 0v-88.142h-5.833V280h5.833zm-11.667 0v-88.142h-5.833V280h5.833zm-11.666 0v-88.142h-5.834V280h5.834zm-11.667 0v-88.142h-5.833V280h5.833zM0 189.583h88.142v-5.833H0v5.833zm0-11.666h88.142v-5.834H0v5.834zm0-11.667h88.142v-5.833H0v5.833zm0-11.667h88.142v-5.833H0v5.833zm0-11.666h88.142v-5.834H0v5.834zm0-11.667h88.142v-5.833H0v5.833zm0-11.667h88.142v-5.833H0v5.833zm0-11.666h88.142v-5.834H0v5.834zM0 96.25h88.142v-5.833H0v5.833z" fill="#303639"/></svg>