<svg width="278" height="241" fill="none" xmlns="http://www.w3.org/2000/svg"><path fill-rule="evenodd" clip-rule="evenodd" d="M89.77 85.354l2.897-1.673 5.791 3.347-5.791 3.347-4.344-2.51-2.896 5.02 13.031 7.532-2.377 1.373 2.896 5.021 5.273-3.047 5.792 3.347-5.792 3.347-21.719-12.552-2.896 5.021 30.407 17.573-2.377 1.374 2.895 5.021 5.273-3.048 5.792 3.347-5.792 3.348-39.093-22.594-2.896 5.021 47.781 27.614-2.377 1.374 2.896 5.021 5.273-3.047 5.791 3.347-5.791 3.347-56.47-32.635-2.895 5.02 56.469 32.636v6.694l-5.792-3.347v-6.095h-5.791v2.748l-47.782-27.615-2.896 5.021 39.094 22.594v6.694l-5.791-3.347v-6.095H89.77v2.748l-30.406-17.573-2.896 5.021 21.718 12.552v6.694l-5.791-3.347v-6.095h-5.792v2.748l-13.031-7.531-2.896 5.02 4.344 2.511v6.694l-5.792-3.347v-3.347l-5.791 10.042v3.347l-1.448-.837-2.896 5.021 4.343 2.51v6.695l-5.791-3.348v-3.347l-5.792 10.042v3.347l-1.448-.837-2.896 5.021 4.344 2.51v6.695l-5.791-3.347v-3.348l-5.792 10.042v3.347l-1.448-.836-2.896 5.02 4.344 2.511v6.694l-5.792-3.347v-3.347l-5.791 10.042v3.347l-1.448-.837-2.896 5.021 4.343 2.51V241h5.792v-1.674L17.375 241H28.96l-2.896-1.674v-6.694l5.791 3.347V241h5.792v-1.674L40.542 241h11.583l-2.896-1.674v-6.694l5.792 3.347V241h5.791v-1.674L63.71 241h11.583l-2.896-1.674v-6.694l5.791 3.347V241h5.792v-1.674L86.875 241H98.46l-2.897-1.674v-6.694l5.792 3.347V241h5.792v-15.063l2.377 1.374 2.896-5.021-5.273-3.047v-6.694l5.792 3.347V241h5.791v-35.146l2.377 1.374 2.896-5.021-5.273-3.047v-6.695l5.792 3.347V241h5.792v-55.229l2.377 1.374 2.895-5.021-5.272-3.048v-6.694l5.791 3.347V241h5.792v-65.271l5.791-3.347v6.694l-5.272 3.048 2.895 5.021 2.377-1.374V241h5.792v-45.188l5.792-3.347v6.695l-5.273 3.047 2.896 5.021 2.377-1.374V241h5.791v-25.104l5.792-3.347v6.694l-5.273 3.047 2.896 5.021 2.377-1.373V241h5.792v-5.021l5.791-3.347v6.694L179.542 241h11.583l2.896-1.674V241h5.791v-5.021l5.792-3.347v6.694L202.708 241h11.584l2.895-1.674V241h5.792v-5.021l5.792-3.347v6.694L225.875 241h11.583l2.896-1.674V241h5.792v-5.021l5.791-3.347v6.694L249.042 241h11.583l2.896-1.674V241h5.791v-5.021l4.344-2.51-2.896-5.021-1.448.837v-3.348l-5.791-10.041v3.347l-5.792 3.347v-6.694l4.344-2.511-2.896-5.02-1.448.836v-3.347l-5.792-10.042v3.348l-5.791 3.347v-6.694l4.344-2.511-2.896-5.021-1.448.837v-3.347l-5.792-10.042v3.347l-5.792 3.348v-6.695l4.344-2.51-2.896-5.021-1.448.837v-3.348l-5.791-10.041v3.347l-5.792 3.347v-6.694l4.344-2.511-2.896-5.02-13.031 7.531v-2.748h-5.792v6.095l-5.792 3.347v-6.694l21.719-12.552-2.896-5.021-30.406 17.573v-2.748h-5.792v6.095l-5.791 3.347v-6.694l39.094-22.594-2.896-5.021-47.782 27.615v-2.748h-5.791v6.095l-5.792 3.347v-6.694l56.469-32.636-2.896-5.02-56.469 32.635-5.791-3.347 5.791-3.347 5.273 3.047 2.896-5.021-2.377-1.374 47.781-27.614-2.896-5.021-39.093 22.594-5.792-3.348 5.792-3.347 5.273 3.048 2.895-5.021-2.377-1.374 30.407-17.573-2.896-5.02-21.719 12.551-5.792-3.347 5.792-3.347 5.273 3.047 2.896-5.021-2.377-1.373 13.031-7.532-2.896-5.02-4.344 2.51-5.791-3.347 5.791-3.347 2.896 1.673-5.792-10.041-2.895-1.674 1.448-.837-2.896-5.02-4.344 2.51-5.792-3.347 5.792-3.348 2.896 1.674-5.792-10.042-2.896-1.673 1.448-.837-2.896-5.021-4.343 2.51-5.792-3.347 5.792-3.347 2.895 1.673-5.791-10.041-2.896-1.674 1.448-.837-2.896-5.02-4.344 2.51-5.791-3.347 5.791-3.347 2.896 1.673-5.792-10.041-2.895-1.674 1.448-.837-2.896-5.02-4.344 2.51-4.344-2.51-2.896 5.02 1.448.837-2.896 1.674-5.791 10.041 2.896-1.673 5.791 3.347-5.791 3.347-4.344-2.51-2.896 5.02 1.448.837-2.896 1.674-5.792 10.042 2.896-1.674 5.792 3.347-5.792 3.347-4.343-2.51-2.896 5.02 1.448.838-2.896 1.673-5.792 10.042 2.896-1.674 5.792 3.348-5.792 3.347-4.344-2.51-2.896 5.02 1.448.837-2.896 1.674-5.791 10.041zm14.48-8.368l-5.792 3.347 5.792 3.348 5.792-3.348-5.792-3.347zm11.583 6.695l-5.791 3.347 5.791 3.347 5.792-3.347-5.792-3.347zm11.584 0l-5.792-3.348 5.792-3.347 5.791 3.347-5.791 3.348zm0 6.694l-5.792 3.347 5.792 3.348 5.791-3.348-5.791-3.347zM139 97.07l-5.792 3.347 5.792 3.347 5.792-3.347L139 97.07zm5.792 10.041l5.791 3.347 5.792-3.347-5.792-3.347-5.791 3.347zm11.583-6.694l5.792 3.347 5.791-3.347-5.791-3.347-5.792 3.347zm11.583-6.695l5.792 3.348 5.792-3.348-5.792-3.347-5.792 3.347zm0-6.694l-5.791 3.347-5.792-3.347 5.792-3.347 5.791 3.347zm5.792-3.347l5.792-3.348-5.792-3.347-5.792 3.347 5.792 3.348zm-11.583-6.695l5.791-3.347-5.791-3.347-5.792 3.347 5.792 3.347zm-11.584-6.694l5.792-3.347-5.792-3.348-5.791 3.348 5.791 3.347zM139 63.597l5.792-3.347L139 56.903l-5.792 3.347L139 63.597zm-11.583-6.694l5.791-3.347-5.791-3.348-5.792 3.348 5.792 3.347zm-11.584 0l-5.791 3.347 5.791 3.347 5.792-3.347-5.792-3.347zm0 13.389l-5.791 3.347 5.791 3.347 5.792-3.347-5.792-3.347zm11.584 0l-5.792-3.347 5.792-3.348 5.791 3.348-5.791 3.347zm5.791 3.347L139 70.292l5.792 3.347L139 76.986l-5.792-3.347zM139 83.68l-5.792 3.347L139 90.375l5.792-3.347L139 83.68zm11.583 0l5.792-3.348-5.792-3.347-5.791 3.347 5.791 3.348zm0 6.694l5.792 3.347-5.792 3.348-5.791-3.348 5.791-3.347zm-17.375-43.514L139 50.208l5.792-3.347L139 43.514l-5.792 3.347zm11.584-6.694l5.791 3.347 5.792-3.347-5.792-3.348-5.791 3.348zm0-6.695L139 30.125l-5.792 3.347L139 36.82l5.792-3.347zm-17.375 3.347l-5.792 3.348 5.792 3.347 5.791-3.347-5.791-3.348zm23.166 13.39l-5.791 3.347 5.791 3.347 5.792-3.347-5.792-3.348zm11.584 6.694l-5.792 3.347 5.792 3.347 5.791-3.347-5.791-3.347zm0 53.555l-5.792 3.348 5.792 3.347 5.791-3.347-5.791-3.348zm-5.792 10.042l-5.792-3.347-5.791 3.347 5.791 3.347 5.792-3.347zm-11.583 6.694L139 123.847l-5.792 3.347 5.792 3.348 5.792-3.348zm-11.584 6.695l-5.791-3.347-5.792 3.347 5.792 3.347 5.791-3.347zm0 6.694l5.792-3.347 5.792 3.347-5.792 3.348-5.792-3.348zm17.375-3.347l-5.791-3.347 5.791-3.347 5.792 3.347-5.792 3.347zm-23.166-13.389l5.791-3.347-5.791-3.347-5.792 3.347 5.792 3.347zm-11.584-6.694l5.792-3.347-5.792-3.348-5.791 3.348 5.791 3.347zm5.792-10.042l5.792 3.347 5.791-3.347-5.791-3.347-5.792 3.347zm0-6.694l-5.792-3.347-5.791 3.347 5.791 3.347 5.792-3.347zM104.25 97.07l5.792-3.348-5.792-3.347-5.792 3.347 5.792 3.348zM139 110.458l-5.792 3.348 5.792 3.347 5.792-3.347-5.792-3.348zm0-87.027l5.792-3.348L139 16.736l-5.792 3.347L139 23.431zm-2.896-18.41L139 3.347l2.896 1.674L139 0l-2.896 5.02zM139 150.625l-5.792 3.347 2.896 1.674v-2.748h5.792v2.748l2.896-1.674-5.792-3.347zm8.687 8.368l-2.895 1.674 2.377 1.373-2.896 5.021-2.377-1.373v3.347l5.791-3.348v-6.694zm-11.583 10.042v-3.348l-2.377 1.374-2.896-5.021 2.377-1.373-2.895-1.674v6.695l5.791 3.347zm17.375 0v6.694l5.792-3.347v-6.695l-5.792 3.348zm11.583-6.695v6.695l5.792-3.348v-6.694l-5.792 3.347zm5.792 10.042l-5.792 3.347v6.695l5.792-3.348v-6.694zm0 13.389l-5.792 3.347v6.695l5.792-3.348v-6.694zm5.792 3.347v-6.694l5.791-3.348v6.695l-5.791 3.347zm0 6.695l5.791-3.348v6.695l-5.791 3.347v-6.694zm0 13.388v6.695l5.791-3.347v-6.695l-5.791 3.347zm11.583-6.694v6.694l5.792-3.347v-6.694l-5.792 3.347zm11.583 0l5.792-3.347v-6.695l-5.792 3.348v6.694zm0-13.389l5.792-3.347v-6.695l-5.792 3.348v6.694zm0-13.389l5.792-3.347v-6.694l-5.792 3.347v6.694zm-5.791-10.041v-6.695l-5.792 3.347v6.695l5.792-3.347zm-11.584 6.694l-5.791 3.347v-6.694l5.791-3.347v6.694zm11.584 0v6.694l-5.792 3.348v-6.695l5.792-3.347zm-5.792 16.736v6.695l5.792-3.348v-6.694l-5.792 3.347zm23.167-26.778v6.695l5.791-3.347v-6.695l-5.791 3.347zm5.791 10.042l-5.791 3.347v6.695l5.791-3.348v-6.694zm0 13.389l-5.791 3.347v6.695l5.791-3.348v-6.694zm0 13.389l-5.791 3.347v6.694l5.791-3.347v-6.694zm0 13.389l-5.791 3.347v6.694l5.791-3.347v-6.694zm0 13.389v6.694l-5.791 3.347v-6.694l5.791-3.347zm5.792 3.347l5.792-3.347v-6.695l-5.792 3.347v6.695zm5.792-16.736l-5.792 3.347v-6.695l5.792-3.347v6.695zm5.791 3.347v6.694l5.792-3.347v-6.694l-5.792 3.347zm5.792-10.042l-5.792 3.347v-6.694l5.792-3.347v6.694zm0-13.389v-6.694l-5.792 3.347v6.695l5.792-3.348zm-11.583 6.695l-5.792 3.347v-6.694l5.792-3.348v6.695zm0-13.389l-5.792 3.347v-6.694l5.792-3.348v6.695zm0-13.389l-5.792 3.347v-6.694l5.792-3.347v6.694zm17.375 36.819v6.695l5.791-3.347v-6.695l-5.791 3.347zm5.791 10.042l-5.791 3.347v6.695l5.791-3.347v-6.695zm-11.583 13.389v-6.694l-5.792 3.347v6.694l5.792-3.347zm-34.75-6.694v-6.695l-5.792 3.347v6.695l5.792-3.347zm-11.583 6.694v-6.694l-5.792 3.347v6.694l5.792-3.347zm-5.792-10.042l5.792-3.347v-6.694l-5.792 3.347v6.694zm-5.792-3.347l-5.791 3.347v6.695l5.791-3.347v-6.695zm17.375-10.042v6.695l5.792-3.347v-6.695l-5.792 3.347zm-28.958-3.347v-6.694l-5.792 3.347v6.694l5.792-3.347zm-11.583-20.083v-6.695l-5.792 3.348v6.694l5.792-3.347zm115.833 50.208v3.347L272.208 241H278l-2.896-5.021zm-17.375-6.694v6.694l5.792-3.347v-6.694l-5.792 3.347zm-133.208-60.25l-5.792-3.347v6.694l5.792 3.347v-6.694zm0 13.389l-5.792-3.348v6.695l5.792 3.347v-6.694zm-11.583 0v-6.695l-5.792-3.347v6.694l5.792 3.348zm-11.584-6.695v-6.694l-5.791-3.348v6.695l5.791 3.347zm-5.791 3.347l5.791 3.348v6.694l-5.791-3.347v-6.695zm-5.792-10.041v-6.695l-5.792-3.347v6.694l5.792 3.348zm-11.584 0l-5.791-3.348v6.695l5.791 3.347v-6.694zm0 13.389l-5.791-3.348v6.695l5.791 3.347v-6.694zm-5.791 10.041v6.695l5.791 3.347v-6.695l-5.791-3.347zm11.583 6.695v6.694l5.792 3.347v-6.694l-5.792-3.347zm11.584 6.694v6.695l5.791 3.347v-6.695l-5.791-3.347zm5.791-3.347l-5.791-3.347v-6.695l5.791 3.347v6.695zm5.792 3.347l5.792 3.347v-6.694l-5.792-3.347v6.694zm0-13.389v-6.694l5.792 3.347v6.694l-5.792-3.347zm-17.375-10.041v-6.695l-5.792-3.347v6.694l5.792 3.348zm0 6.694v6.694l-5.792-3.347v-6.694l5.792 3.347zm11.583 33.472l-5.791-3.347v6.694l5.791 3.348v-6.695zm-11.583 0v-6.694l-5.792-3.347v6.694l5.792 3.347zm-11.584-6.694v-6.695l-5.791-3.347v6.695l5.791 3.347zm-5.791 3.347l5.791 3.347v6.695l-5.791-3.348v-6.694zm-5.792-10.042v-6.694l-5.791-3.347v6.694l5.791 3.347zm-11.583-6.694v-6.695l-5.792-3.347v6.695l5.792 3.347zm-5.792 3.347l5.792 3.347v6.695l-5.792-3.347v-6.695zm-5.791-10.042l-5.792-3.347v-6.694l5.791 3.347v6.694zm-5.792 3.348l5.791 3.347v6.694l-5.791-3.347v-6.694zm-5.792 10.041l-5.791-3.347v6.695l5.791 3.347v-6.695zm0 13.389l-5.791-3.347v6.694l5.791 3.348v-6.695zm5.792 10.042l5.791 3.347v-6.694l-5.791-3.348v6.695zm5.791-10.042l-5.791-3.347v-6.694l5.791 3.347v6.694zm5.792 3.347l5.792 3.348v-6.695l-5.792-3.347v6.694zm11.584 0v6.695l5.791 3.347v-6.694l-5.791-3.348zm5.791-3.347v-6.694l-5.791-3.347v6.694l5.791 3.347zM49.23 185.771l5.792 3.347v-6.694l-5.792-3.348v6.695zm0-13.389l5.792 3.347v-6.694l-5.792-3.348v6.695zm11.584 0v6.694l5.791 3.348v-6.695l-5.791-3.347zm5.791-3.347v-6.695l-5.791-3.347v6.694l5.791 3.348zm0 20.083l-5.791-3.347v6.694l5.791 3.347v-6.694zm17.375 43.514l5.792 3.347v-6.694l-5.792-3.348v6.695zm23.167-66.944l5.792 3.347v-6.695l-5.792-3.347v6.695zM5.792 241l-2.896-1.674v-3.347L0 241h5.792zm14.479-11.715l-5.792-3.348v6.695l5.792 3.347v-6.694z" fill="#303639"/></svg>