<svg width="280" height="280" fill="none" xmlns="http://www.w3.org/2000/svg"><path fill-rule="evenodd" clip-rule="evenodd" d="M279.97 142.904l-88.124-1.793a51.164 51.164 0 000-2.222l88.124-1.793a140.29 140.29 0 010 5.808zm-.235-11.587l-87.978 5.384a51.788 51.788 0 00-.176-2.159l87.683-8.988c.196 1.91.353 3.832.471 5.763zm-1.181-11.51a137.625 137.625 0 00-.946-5.712l-86.639 16.209c.13.695.246 1.397.349 2.105l87.236-12.602zm-2.128-11.377l-85.891 19.795a51.283 51.283 0 00-.518-2.052l84.992-23.353c.51 1.855.982 3.725 1.417 5.61zm-3.065-11.156l-83.946 26.873a51.74 51.74 0 00-.687-2l82.755-30.345a140.981 140.981 0 011.878 5.472zm-3.984-10.864l-81.42 33.763a50.869 50.869 0 00-.854-1.944l79.946-37.119a140.582 140.582 0 012.328 5.3zm-4.874-10.497l-78.336 40.404a52.318 52.318 0 00-1.018-1.877l76.595-43.614c.954 1.674 1.874 3.37 2.759 5.087zm-5.726-10.056l-74.726 46.744a51.831 51.831 0 00-1.177-1.797l72.734-49.788a139.981 139.981 0 013.169 4.841zm-6.536-9.548l-70.62 52.742a54.379 54.379 0 00-1.328-1.703l68.39-55.605a139.906 139.906 0 013.558 4.566zm-7.3-8.98l-66.047 58.369a52.584 52.584 0 00-1.467-1.593l63.593-61.033a140.788 140.788 0 013.921 4.257zm-8.013-8.349l-61.033 63.593c-.521-.5-1.052-.989-1.593-1.467l58.369-66.047a141.033 141.033 0 014.257 3.921zm-8.672-7.663l-55.604 68.39a53.056 53.056 0 00-1.703-1.328l52.742-70.62a139.842 139.842 0 014.565 3.558zm-9.272-6.925l-49.788 72.734a51.391 51.391 0 00-1.797-1.177l46.744-74.726a139.589 139.589 0 014.841 3.169zm-9.809-6.136L165.56 94.85a52.158 52.158 0 00-1.877-1.018l40.404-78.336c1.717.885 3.413 1.805 5.088 2.759zM198.89 12.95l-37.119 79.946a51.346 51.346 0 00-1.944-.854l33.763-81.42c1.786.74 3.553 1.517 5.3 2.328zm-10.692-4.434l-30.345 82.755a50.249 50.249 0 00-2-.687L182.726 6.64c1.841.59 3.665 1.216 5.472 1.878zM177.18 4.991l-23.353 84.992a50.946 50.946 0 00-2.052-.518l19.795-85.89c1.885.434 3.755.906 5.61 1.416zm-11.275-2.6l-16.209 86.64a51.704 51.704 0 00-2.105-.349l12.602-87.236c1.917.276 3.821.592 5.712.946zM154.445.737a140.854 140.854 0 00-5.762-.471l-5.384 87.978c.728.044 1.447.103 2.159.176L154.445.736zM142.904.03l-1.793 88.124a54.575 54.575 0 00-2.222 0L137.096.03a142.84 142.84 0 015.808 0zm-11.587.235c-1.931.118-3.853.275-5.763.471l8.988 87.683a52.831 52.831 0 012.159-.176L131.317.265zm-11.51 1.18l12.602 87.237c-.708.103-1.41.22-2.105.35l-16.209-86.64a139.61 139.61 0 015.712-.946zm-11.377 2.13l19.795 85.89c-.69.159-1.374.332-2.052.518L102.82 4.991c1.855-.51 3.725-.982 5.61-1.417zM97.274 6.638l26.873 83.946c-.673.216-1.34.445-2 .687L91.802 8.517a138.925 138.925 0 015.472-1.878zM86.41 10.623l33.763 81.42c-.654.27-1.302.556-1.944.854L81.11 12.95a139.297 139.297 0 015.3-2.328zm-10.497 4.874l40.404 78.336c-.632.326-1.258.666-1.877 1.018L70.826 18.256c1.674-.954 3.37-1.874 5.087-2.759zm-10.056 5.726l46.744 74.726c-.607.38-1.206.772-1.797 1.177L61.016 24.392a140.141 140.141 0 014.841-3.17zm-9.548 6.536l52.742 70.62c-.576.43-1.144.873-1.703 1.328l-55.605-68.39a140.743 140.743 0 014.566-3.558zm-8.98 7.3l58.369 66.047c-.541.478-1.072.967-1.593 1.467L43.072 38.98a140.909 140.909 0 014.257-3.92zm-8.349 8.013l63.593 61.033c-.5.521-.989 1.052-1.467 1.593L35.059 47.329a140.785 140.785 0 013.921-4.257zm-7.663 8.671l68.39 55.605a53.056 53.056 0 00-1.328 1.703L27.76 56.309a140.604 140.604 0 013.558-4.566zm-6.925 9.273l72.734 49.788c-.405.591-.797 1.19-1.177 1.797L21.223 65.857a140.382 140.382 0 013.169-4.841zm-6.136 9.81L94.85 114.44a52.158 52.158 0 00-1.018 1.877L15.497 75.913a139.811 139.811 0 012.759-5.087zM12.95 81.11l79.946 37.119c-.298.642-.583 1.29-.854 1.944L10.623 86.41c.74-1.786 1.517-3.553 2.328-5.3zM8.517 91.802l82.755 30.345c-.242.66-.471 1.327-.687 2L6.64 97.274c.59-1.84 1.216-3.665 1.878-5.472zM4.991 102.82l84.992 23.353c-.186.678-.36 1.362-.518 2.052L3.575 108.43c.434-1.885.906-3.755 1.416-5.61zm-2.6 11.275l86.64 16.209c-.13.695-.246 1.397-.349 2.105L1.446 119.807c.276-1.917.592-3.821.946-5.712zm-1.655 11.46l87.683 8.987a52.831 52.831 0 00-.176 2.159L.265 131.317c.118-1.931.275-3.853.471-5.762zM.03 137.096a142.845 142.845 0 000 5.808l88.124-1.793a54.575 54.575 0 010-2.222L.03 137.096zm.235 11.587c.118 1.931.275 3.853.471 5.763l87.683-8.988a52.831 52.831 0 01-.176-2.159L.265 148.683zm1.18 11.51l87.237-12.602c.103.708.22 1.41.35 2.105l-86.64 16.209a139.61 139.61 0 01-.946-5.712zm2.13 11.377l85.89-19.795c.159.69.332 1.374.518 2.052L4.991 177.18a138.98 138.98 0 01-1.417-5.61zm3.064 11.156l83.946-26.873c.216.673.445 1.34.687 2L8.517 188.198a138.934 138.934 0 01-1.878-5.472zm3.984 10.864l81.42-33.763c.27.654.556 1.302.854 1.944L12.95 198.89a138.758 138.758 0 01-2.328-5.3zm4.874 10.497a139.793 139.793 0 002.759 5.088L94.85 165.56a52.158 52.158 0 01-1.018-1.877l-78.336 40.404zm5.726 10.056l74.726-46.744c.38.607.772 1.206 1.177 1.797l-72.734 49.788a139.445 139.445 0 01-3.17-4.841zm6.536 9.548l70.62-52.742c.43.576.873 1.144 1.328 1.703l-68.39 55.604a139.98 139.98 0 01-3.558-4.565zm7.3 8.98l66.047-58.369c.478.541.967 1.072 1.467 1.593L38.98 236.928a141.033 141.033 0 01-3.92-4.257zm8.013 8.349l61.033-63.593c.521.5 1.052.989 1.593 1.467l-58.369 66.047a140.664 140.664 0 01-4.257-3.921zm8.671 7.663l55.605-68.39c.559.454 1.127.897 1.703 1.328l-52.742 70.62a139.906 139.906 0 01-4.566-3.558zm9.273 6.925l49.788-72.734c.591.405 1.19.797 1.797 1.177l-46.744 74.726a138.622 138.622 0 01-4.841-3.169zm9.81 6.136l43.614-76.595c.619.352 1.245.692 1.877 1.018l-40.404 78.336a138.143 138.143 0 01-5.087-2.759zm10.284 5.305l37.119-79.946c.642.298 1.29.583 1.944.854l-33.763 81.42a140.578 140.578 0 01-5.3-2.328zm10.692 4.434l30.345-82.755c.66.242 1.327.471 2 .687l-26.873 83.946c-1.84-.59-3.665-1.216-5.472-1.878zm11.018 3.526l23.353-84.992c.678.186 1.362.359 2.052.518l-19.795 85.891a139.405 139.405 0 01-5.61-1.417zm11.275 2.599l16.209-86.639c.695.13 1.397.246 2.105.349l-12.602 87.236a137.625 137.625 0 01-5.712-.946zm11.46 1.656l8.987-87.683c.712.073 1.431.132 2.159.176l-5.384 87.978a140.092 140.092 0 01-5.762-.471zm11.541.706l1.793-88.124a51.164 51.164 0 002.222 0l1.793 88.124a140.29 140.29 0 01-5.808 0zm11.587-.235l-5.384-87.978a51.788 51.788 0 002.159-.176l8.988 87.683c-1.91.196-3.832.353-5.763.471zm11.51-1.181c1.917-.276 3.821-.592 5.712-.946l-16.209-86.639c-.695.13-1.397.246-2.105.349l12.602 87.236zm11.377-2.128l-19.795-85.891c.69-.159 1.374-.332 2.052-.518l23.353 84.992c-1.855.51-3.725.982-5.61 1.417zm11.156-3.065l-26.873-83.946a51.74 51.74 0 002-.687l30.345 82.755a140.99 140.99 0 01-5.472 1.878zm10.864-3.984l-33.763-81.42a50.869 50.869 0 001.944-.854l37.119 79.946a140.033 140.033 0 01-5.3 2.328zm10.497-4.874l-40.404-78.336a52.318 52.318 0 001.877-1.018l43.615 76.595a138.427 138.427 0 01-5.088 2.759zm10.056-5.726l-46.744-74.726c.607-.38 1.206-.772 1.797-1.177l49.788 72.734a139.287 139.287 0 01-4.841 3.169zm9.548-6.536l-52.742-70.62a54.379 54.379 0 001.703-1.328l55.604 68.39a139.152 139.152 0 01-4.565 3.558zm8.98-7.3l-58.369-66.047a52.584 52.584 0 001.593-1.467l61.033 63.593a140.912 140.912 0 01-4.257 3.921zm8.349-8.013l-63.593-61.033c.5-.521.989-1.052 1.467-1.593l66.047 58.369a140.912 140.912 0 01-3.921 4.257zm7.663-8.672l-68.39-55.604c.454-.559.897-1.127 1.328-1.703l70.62 52.742a139.152 139.152 0 01-3.558 4.565zm6.925-9.272l-72.734-49.788c.405-.591.797-1.19 1.177-1.797l74.726 46.744a137.848 137.848 0 01-3.169 4.841zm6.136-9.809a138.427 138.427 0 002.759-5.088l-78.336-40.404a52.318 52.318 0 01-1.018 1.877l76.595 43.615zm5.305-10.285l-79.946-37.119c.298-.642.583-1.29.854-1.944l81.42 33.763a140.033 140.033 0 01-2.328 5.3zm4.434-10.692l-82.755-30.345c.242-.66.471-1.327.687-2l83.946 26.873a140.99 140.99 0 01-1.878 5.472zm3.526-11.018l-84.992-23.353c.186-.678.359-1.362.518-2.052l85.891 19.795a139.405 139.405 0 01-1.417 5.61zm2.599-11.275l-86.639-16.209c.13-.695.246-1.397.349-2.105l87.236 12.602a137.625 137.625 0 01-.946 5.712zm1.656-11.46l-87.683-8.987c.073-.712.132-1.431.176-2.159l87.978 5.384a140.092 140.092 0 01-.471 5.762z" fill="#303639"/>
</svg>